<svg width="14" height="14" viewBox="0 0 14 14" fill="none" xmlns="http://www.w3.org/2000/svg">
<path d="M3.625 11.5075C3.625 12.055 3.79 12.55 4.0975 12.9775C2.0875 12.85 0.25 12.115 0.25 10.7575V10.0975C1.0375 10.7125 2.2 11.125 3.625 11.26V11.5075ZM3.65498 8.455C3.64748 8.4625 3.64752 8.46998 3.64752 8.47748C3.63252 8.55248 3.625 8.62751 3.625 8.70251V10.135C1.81 9.92499 0.25 9.20501 0.25 7.95251V7.29251C1.0375 7.91501 2.20752 8.3275 3.64752 8.455H3.65498ZM6.58 5.71002C5.44 6.06252 4.54751 6.63999 4.05251 7.35999C2.05751 7.23249 0.25 6.49752 0.25 5.14752V4.63748C1.2325 5.40998 2.8075 5.85999 4.75 5.85999C5.4025 5.85999 6.0175 5.80752 6.58 5.71002ZM9.25 4.63748V5.14752C9.25 5.21502 9.24249 5.27502 9.23499 5.33502C8.64249 5.33502 8.07999 5.38748 7.55499 5.47748C8.22999 5.27498 8.8 4.98998 9.25 4.63748ZM4.75 0.25C2.5 0.25 0.25 0.999993 0.25 2.49249C0.25 3.99999 2.5 4.73499 4.75 4.73499C7 4.73499 9.25 3.99999 9.25 2.49249C9.25 0.999993 7 0.25 4.75 0.25ZM9.25 12.07C7.3675 12.07 5.7625 11.575 4.75 10.7725V11.5075C4.75 13 7 13.75 9.25 13.75C11.5 13.75 13.75 13 13.75 11.5075V10.7725C12.7375 11.575 11.1325 12.07 9.25 12.07ZM9.25 6.46002C6.7675 6.46002 4.75 7.46501 4.75 8.70251C4.75 9.94001 6.7675 10.945 9.25 10.945C11.7325 10.945 13.75 9.94001 13.75 8.70251C13.75 7.46501 11.7325 6.46002 9.25 6.46002Z" fill="url(#paint0_linear_16_734)"/>
<defs>
<linearGradient id="paint0_linear_16_734" x1="7" y1="0.25" x2="7" y2="13.75" gradientUnits="userSpaceOnUse">
<stop stop-color="#E0030C"/>
<stop offset="1" stop-color="#9B0207"/>
</linearGradient>
</defs>
</svg>
